<svg height="64pt" viewBox="0 0 64 64" width="64pt" xmlns="http://www.w3.org/2000/svg"><path fill="#aeaeae" d="m48.508-.019c-4.059.194-7.961 1.968-10.978 4.983l-11.835 11.835c1.859-1.869 8.758-.583 10.432 1.091l7.163-7.163c1.587-1.587 3.573-2.562 5.606-2.649 1.89-.116 3.738.594 5.063 1.946 1.262 1.257 1.963 2.97 1.944 4.751 0 2.131-.972 4.254-2.646 5.918l-12.458 12.535c-3.135 3.134-7.903 3.388-10.666.623-1.595-1.583-4.168-1.583-5.763 0-1.587 1.593-1.587 4.169 0 5.763 2.766 2.763 6.524 4.305 10.434 4.28 4.166 0 8.419-1.702 11.681-4.983l12.532-12.458c3.184-3.171 4.983-7.415 4.983-11.678 0-3.961-1.495-7.728-4.28-10.511-2.978-2.978-6.977-4.478-11.212-4.283zm-19.31 20.089c-4.166 0-8.486 1.712-11.757 4.983l-12.458 12.458c-3.182 3.171-4.983 7.415-4.983 11.678 0 3.961 1.5 7.728 4.283 10.511 2.977 2.978 6.976 4.478 11.212 4.283 4.059-.194 7.96-1.968 10.978-4.983l11.834-11.835c-1.868 1.869-8.757.583-10.432-1.091l-7.163 7.163c-1.587 1.587-3.573 2.552-5.606 2.649-1.89.117-3.739-.594-5.063-1.949-1.26-1.257-1.96-2.969-1.943-4.748 0-2.131.972-4.254 2.646-5.918l12.458-12.535c3.134-3.134 7.903-3.376 10.666-.623 1.587 1.587 4.186 1.587 5.763 0 1.586-1.593 1.586-4.169 0-5.763-2.768-2.762-6.525-4.303-10.435-4.28z"/></svg>